<svg fill="none" height="506" viewBox="0 0 511 506" width="511" xmlns="http://www.w3.org/2000/svg"><path d="m510.718 251.746c-1.214-7.258-2.157-14.678-3.842-21.773-1.142-4.826-3.48-9.072-4.984-13.825-4.277-13.3-12.341-24.494-19.645-36.161-2.464-3.919-6.379-6.786-8.608-10.886-3.933-7.058-3.788-20.394-4.259-28.45-3.244-54.4314-9.478-89.7031-103.644-97.3053-1.522-.127-3.008-.8528-4.585-1.1249-4.803-.901-9.503-2.287-14.027-4.1368-7.084-2.9291-13.941-6.3798-20.515-10.3239-4.458-2.5764-9.406-4.1731-13.628-7.2575-11.914-8.4123-25.241-14.61316-39.345-18.30719-4.012-1.32307-8.192-2.06242-12.414-2.19541-2.175.261385-4.334.636874-6.47 1.12492-2.348.14034-4.675.52958-6.941 1.16121-7.684 2.41313-14.625 6.40478-21.747 10.19687-9.678 5.1528-19.301 10.4145-28.562 16.3294-6.919 4.0877-14.228 7.4732-21.82 10.1062-6.777 2.6308-13.737 4.7174-20.641 6.8946-8.009 2.6644-16.189 4.78-24.484 6.3322-7.032 1.2883-40.0515 8.5458-50.454 20.9199-3.0685 3.1206-5.9262 6.4422-8.554 9.9428-5.73 7.3096-10.0671 15.6127-12.7946 24.4939-3.3709 11.522-7.3579 22.989-9.3695 34.837-14.1358 83.752-65.9669 78.018-44.05644 150.467 3.18961 10.523 11.18174 18.887 16.20174 28.631 3.6246 7.039 32.8747 35.816 33.6359 38.21 2.664 8.691 4.9837 17.527 7.6478 26.237 3.7362 9.647 8.1448 19.021 13.1933 28.05 35.2668 59.276 68.1418 26.472 140.3428 80.504 9.311 6.351 20.042 10.308 31.244 11.522 7.099.161 14.202-.16 21.258-.962 7.182-.055 14.261-1.723 20.714-4.881 7.938-3.901 15.676-8.237 23.27-12.7 8.753-5.208 17.18-10.887 25.879-16.33 5.944-3.629 6.307-5.026 13.121-6.931 5.962-1.705 11.925-3.629 17.869-5.098 5.944-1.47 11.707-2.958 17.651-4.173 7.866-1.543 15.604-3.883 23.342-6.115 3.625-1.016 7.558-1.343 10.693-3.919s6.56-4.917 9.677-7.602c4.984-4.264 9.225-9.29 10.874-15.785 1.389-5.369 3.207-10.618 5.437-15.695.79-1.821 1.474-3.687 2.048-5.588 4.494-15.441 8.934-30.845 13.864-46.303 3.135-9.78 7.938-18.725 12.414-27.851 3.081-6.26 8.173-11.068 11.979-16.783 5.002-7.494 10.004-14.987 13.32-23.442.333-.997.891-1.904 1.631-2.649 1.329-1.321 2.237-3.007 2.61-4.844 1.578-4.632 2.838-9.367 3.769-14.171.617-4.137 2.574-8.128 1.813-12.392" fill="#26263a"/></svg>